HIERARCHY
ROOT Hips
{
	OFFSET 0.000000 0.000000 0.000000
	CHANNELS 6 Xposition Yposition Zposition Zrotation Yrotation Xrotation 
	JOINT LHipJoint
	{
		OFFSET 0.000000 0.000000 0.000000
		CHANNELS 3 Zrotation Yrotation Xrotation
		JOINT LeftUpLeg
		{
			OFFSET 1.363060 -1.794630 0.839290
			CHANNELS 3 Zrotation Yrotation Xrotation
			JOINT LeftLeg
			{
				OFFSET 2.448110 -6.726130 0.000000
				CHANNELS 3 Zrotation Yrotation Xrotation
				JOINT LeftFoot
				{
					OFFSET 2.562200 -7.039590 0.000000
					CHANNELS 3 Zrotation Yrotation Xrotation
					JOINT LeftToeBase
					{
						OFFSET 0.157640 -0.433110 2.322550
						CHANNELS 3 Zrotation Yrotation Xrotation
						End Site
						{
							OFFSET 0.000000 0.000000 0.000000
						}
					}
				}
			}
		}
	}
	JOINT RHipJoint
	{
		OFFSET 0.000000 0.000000 0.000000
		CHANNELS 3 Zrotation Yrotation Xrotation
		JOINT RightUpLeg
		{
			OFFSET -1.305520 -1.794630 0.839290
			CHANNELS 3 Zrotation Yrotation Xrotation
			JOINT RightLeg
			{
				OFFSET -2.542530 -6.985550 0.000000
				CHANNELS 3 Zrotation Yrotation Xrotation
				JOINT RightFoot
				{
					OFFSET -2.568260 -7.056230 0.000000
					CHANNELS 3 Zrotation Yrotation Xrotation
					JOINT RightToeBase
					{
						OFFSET -0.164730 -0.452590 2.363150
						CHANNELS 3 Zrotation Yrotation Xrotation
						End Site
						{
							OFFSET 0.000000 0.000000 0.000000
						}
					}
				}
			}
		}
	}
}
MOTION
Frames: 30
Frame Time: 0.008333
3.935568 17.707328 0.783364 17.945824 83.853124 33.844311 -9.146898 1.171249 6.192130 -11.167959 -11.423163 -32.967683 -2.258461 -0.347412 10.006499 -0.039741 2.380451 13.507422 1.480100 0.000000 -41.730101 10.304090 -5.718438 0.430983 9.024953 -10.462581 6.424156 1.201625 -1.245596 10.435661 -0.948271 -5.656255 19.960747 -2.740900 0.000000 -35.948000
4.197749 17.665188 0.800688 21.002062 84.207839 36.477194 -9.034160 1.264994 6.221070 -11.999612 -11.483873 -32.849793 -2.256109 -0.270542 11.350375 0.015350 2.614549 12.399572 1.509000 -0.000000 -40.528900 10.433308 -5.693220 0.109683 8.441700 -12.027389 6.312399 1.006136 -1.352571 12.730917 -1.275328 -7.989256 18.483929 -3.645000 -0.000000 -35.455300
4.456345 17.613607 0.818247 24.871806 84.554725 39.888890 -8.894613 1.358575 6.237726 -12.837733 -11.658945 -32.694461 -2.229261 -0.170175 13.160206 0.103485 2.957836 10.797559 1.530700 0.000000 -38.838599 10.589121 -5.628974 -0.230268 7.737458 -13.588479 6.115223 0.818747 -1.466596 15.287649 -1.583060 -10.026832 16.770410 -4.293999 0.000000 -34.813500
4.711287 17.552683 0.835707 29.368742 84.865257 43.900603 -8.746881 1.448391 6.228421 -13.669148 -11.880556 -32.502604 -2.185377 -0.046258 15.372103 0.216173 3.328720 8.779045 1.505400 0.000000 -36.773800 10.755642 -5.530682 -0.573802 6.950568 -15.069531 5.835926 0.645104 -1.590517 18.090362 -1.857269 -11.714892 14.887372 -4.669300 0.000000 -34.120300
4.962671 17.482573 0.852688 34.233075 85.119094 48.266108 -8.610037 1.531687 6.184997 -14.481882 -12.087623 -32.282315 -2.132622 0.099117 17.905137 0.344971 3.670159 6.431305 1.411100 -0.000000 -34.465200 10.918501 -5.406571 -0.905906 6.121435 -16.409060 5.456283 0.488975 -1.728015 21.139039 -2.087023 -13.024775 12.882366 -4.776900 0.000000 -33.438900
5.210733 17.403697 0.868874 39.163013 85.305510 52.702699 -8.498687 1.606599 6.106116 -15.265717 -12.238100 -32.042527 -2.078899 0.261042 20.658754 0.482700 3.956544 3.846222 1.245400 -0.000000 -32.062600 11.068145 -5.266819 -1.212218 5.289399 -17.558095 4.942497 0.352082 -1.882637 24.434513 -2.266177 -13.955815 10.789280 -4.644200 0.000000 -32.797001
5.455772 17.316732 0.884076 43.874970 85.422188 56.948510 -8.419645 1.673042 5.995985 -16.016975 -12.308417 -31.792642 -2.031262 0.432868 23.526157 0.624081 4.184849 1.108775 1.018500 0.000000 -29.711800 11.202037 -5.121711 -1.480759 4.485335 -18.486941 4.253254 0.233880 -2.057057 27.972161 -2.392934 -14.529456 8.633041 -4.312500 -0.000000 -32.176600
5.698067 17.222619 0.898272 48.121299 85.471060 60.778694 -8.372217 1.732713 5.862936 -16.738164 -12.289203 -31.546468 -1.995157 0.607460 26.407334 0.765997 4.363322 -1.709782 0.745400 0.000000 -27.534201 11.323163 -4.980076 -1.700697 3.732403 -19.178406 3.344446 0.131394 -2.252289 31.737863 -2.469515 -14.785871 6.432426 -3.832100 0.000000 -31.517199
5.937760 17.122553 0.911571 51.736788 85.456115 64.047199 -8.349741 1.788677 5.715922 -17.437521 -12.181905 -31.314908 -1.974273 0.778461 29.216157 0.907460 4.503808 -4.553705 0.440200 -0.000000 -25.619800 11.438024 -4.847093 -1.865292 3.043598 -19.629224 2.185693 0.038991 -2.467103 35.697971 -2.502051 -14.782625 4.210000 -3.257700 0.000000 -30.745300
6.173549 17.017284 0.925479 54.803902 85.367894 66.831441 -8.334789 1.846473 5.553995 -18.152512 -11.994517 -31.077437 -1.973478 0.942878 31.885052 1.049231 4.618988 -7.382528 0.113399 0.000000 -24.012300 11.562988 -4.716492 -1.985087 2.382284 -19.871118 0.786262 -0.051924 -2.699949 39.814765 -2.497514 -14.572065 1.976925 -2.634500 0.000001 -29.781499
6.404279 16.908082 0.941489 57.409991 85.194994 69.211181 -8.311563 1.911345 5.375912 -18.915426 -11.737812 -30.809177 -1.995379 1.098737 34.356198 1.192567 4.717989 -10.158720 -0.226800 0.000000 -22.730000 11.710072 -4.579185 -2.070799 1.713444 -19.930089 -0.826303 -0.150197 -2.947753 44.029147 -2.466506 -14.223672 -0.241010 -2.007500 0.000000 -28.586000
6.633248 16.799045 0.956693 59.248533 84.983265 70.919994 -8.292719 1.980750 5.210425 -19.656993 -11.429880 -30.563093 -2.031903 1.237992 36.580545 1.337448 4.798463 -12.846658 -0.573000 0.000000 -21.746200 11.857948 -4.447988 -2.094198 1.135150 -19.766148 -2.674896 -0.260672 -3.200113 48.224128 -2.426928 -13.853432 -2.354918 -1.431600 0.000000 -27.194500
6.858190 16.691492 0.972921 60.624828 84.717017 72.253059 -8.272853 2.056473 5.032425 -20.406715 -11.084369 -30.291711 -2.080755 1.362635 38.522268 1.484106 4.866520 -15.418512 -0.918800 -0.000000 -20.993600 12.008953 -4.294518 -2.102951 0.585587 -19.436499 -4.688051 -0.384066 -3.459437 52.343716 -2.386619 -13.500966 -4.349325 -0.916100 0.000000 -25.647400
7.080761 16.588483 0.989465 61.617845 84.424953 73.243781 -8.238125 2.140164 4.880304 -21.141934 -10.723795 -29.966327 -2.148348 1.467147 40.163897 1.627839 4.900570 -17.838286 -1.254500 0.000000 -20.427801 12.170176 -4.139530 -2.052812 0.073723 -18.953598 -6.832545 -0.535281 -3.706785 56.292273 -2.356757 -13.233113 -6.167933 -0.473700 0.000000 -24.112400
7.300670 16.492126 1.006720 62.395469 84.114178 74.065183 -8.192237 2.230456 4.739524 -21.852927 -10.367314 -29.563469 -2.228070 1.551647 41.484280 1.766589 4.901280 -20.077680 -1.570400 0.000000 -19.922201 12.334782 -3.963848 -1.976290 -0.419299 -18.353832 -9.057216 -0.706164 -3.943022 60.013829 -2.340959 -13.064883 -7.802138 -0.096700 -0.000000 -22.621900
7.518211 16.404791 1.024529 63.053954 83.805278 74.799335 -8.139515 2.324165 4.608759 -22.513064 -10.024161 -29.058801 -2.316811 1.615086 42.477819 1.894284 4.855916 -22.101671 -1.853600 -0.000000 -19.444500 12.495651 -3.764879 -1.879790 -0.889944 -17.658027 -11.314689 -0.892573 -4.163394 63.449030 -2.341692 -13.006162 -9.236882 0.222000 -0.000000 -21.308200
7.734099 16.328273 1.043070 63.700406 83.504833 75.543895 -8.082890 2.419654 4.490448 -23.110355 -9.713111 -28.434121 -2.412227 1.656921 43.144457 2.006577 4.761916 -23.884217 -2.093499 0.000000 -18.908400 12.647080 -3.540599 -1.768257 -1.348315 -16.892200 -13.572125 -1.086997 -4.364117 66.559921 -2.356485 -13.035051 -10.493348 0.495900 -0.000000 -20.123700
7.948945 16.264176 1.062264 64.386085 83.233074 76.340454 -8.028412 2.513475 4.383162 -23.617970 -9.436393 -27.680461 -2.510626 1.677042 43.497307 2.097177 4.612203 -25.396619 -2.278900 -0.000000 -18.344800 12.782251 -3.293940 -1.644389 -1.780831 -16.071461 -15.798166 -1.280435 -4.542114 69.313785 -2.381680 -13.123389 -11.594406 0.735500 -0.000000 -19.055300
8.163609 16.213608 1.082215 65.166398 83.002293 77.239674 -7.980276 2.603556 4.287950 -24.019945 -9.199271 -26.797390 -2.608864 1.675823 43.554306 2.162092 4.408804 -26.621090 -2.403499 -0.000000 -17.769400 12.896341 -3.028866 -1.509009 -2.179194 -15.211506 -17.973930 -1.462872 -4.695039 71.691797 -2.411310 -13.228754 -12.579315 0.950600 0.000000 -18.015700
8.378986 16.177353 1.102938 66.078681 82.825186 78.277079 -7.944653 2.688036 4.205575 -24.299071 -8.999973 -25.794831 -2.703376 1.654201 43.340458 2.197958 4.155952 -27.544565 -2.464600 0.000000 -17.246701 12.983590 -2.751579 -1.361510 -2.526291 -14.323015 -20.087700 -1.624498 -4.820881 73.682464 -2.439288 -13.308802 -13.486877 1.148400 0.000000 -16.928300
8.596151 16.155752 1.124537 67.167237 82.709036 79.498568 -7.924836 2.766427 4.137956 -24.448039 -8.837460 -24.688039 -2.791094 1.613521 42.882686 2.203795 3.864097 -28.163753 -2.464800 0.000000 -16.834900 13.041062 -2.468100 -1.200363 -2.810080 -13.417039 -22.134568 -1.756445 -4.918287 75.280648 -2.459762 -13.323347 -14.352222 1.332900 -0.000000 -15.734299
8.816006 16.148903 1.147005 68.475807 82.658965 80.950240 -7.925137 2.838709 4.086648 -24.460790 -8.705983 -23.497160 -2.869048 1.555442 42.208082 2.179332 3.543449 -28.478815 -2.409200 -0.000000 -16.607700 13.065297 -2.184722 -1.023695 -3.016776 -12.501270 -24.112170 -1.851439 -4.986059 76.483655 -2.468622 -13.243458 -15.198780 1.504700 -0.000000 -14.409600
9.039358 16.156803 1.170283 70.049815 82.676225 82.679726 -7.949464 2.905735 4.052999 -24.335518 -8.596636 -22.243066 -2.934474 1.481816 41.340990 2.124860 3.203438 -28.490030 -2.304400 -0.000000 -16.656600 13.053432 -1.907293 -0.829360 -3.135676 -11.581196 -26.018306 -1.904289 -5.023170 77.289216 -2.464117 -13.055068 -16.033826 1.661000 0.000000 -12.970799
9.266905 16.179151 1.194352 71.952046 82.755545 84.750638 -7.998226 2.969187 4.038017 -24.079359 -8.503500 -20.940966 -2.985325 1.394552 40.298315 2.041875 2.854599 -28.197900 -2.158300 0.000000 -17.060201 13.005409 -1.639641 -0.616402 -3.167126 -10.664549 -27.848030 -1.912212 -5.029287 77.693749 -2.446396 -12.756724 -16.846310 1.795600 0.000000 -11.487801
9.499229 16.215568 1.219116 74.245360 82.888075 87.224888 -8.071043 3.031114 4.041630 -23.702377 -8.419358 -19.600573 -3.019762 1.295609 39.089749 1.931613 2.504261 -27.596158 -1.977900 -0.000000 -17.912800 12.921817 -1.384880 -0.384911 -3.115974 -9.758518 -29.591089 -1.874979 -5.004311 77.690708 -2.418080 -12.363551 -17.607432 1.901000 0.000000 -10.078100
9.736470 16.265627 1.244408 76.992004 83.061426 90.157565 -8.165825 3.093714 4.061949 -23.218654 -8.337037 -18.220960 -3.036227 1.187149 37.716219 1.795437 2.158343 -26.671579 -1.769500 -0.000000 -19.309000 12.804584 -1.145293 -0.137150 -2.992837 -8.871205 -31.228504 -1.794917 -4.948573 77.270437 -2.383562 -11.904069 -18.274756 1.970500 0.000000 -8.885800
9.978833 16.328828 1.269913 80.235253 83.262720 93.583954 -8.279998 3.159029 4.095301 -22.641919 -8.248927 -16.794231 -3.033072 1.071575 36.170705 1.634544 1.820810 -25.400212 -1.538400 -0.000000 -21.386300 12.656177 -0.923191 0.122614 -2.808611 -8.009850 -32.734081 -1.676424 -4.862541 76.420191 -2.348352 -11.416596 -18.798693 1.999900 0.000001 -8.084499
10.225989 16.404485 1.295376 83.995902 83.478217 97.509996 -8.408983 3.229416 4.137052 -21.988308 -8.149113 -15.303625 -3.008828 0.952026 34.442806 1.451638 1.497568 -23.757316 -1.291200 0.000000 -24.215100 12.480924 -0.720880 0.388308 -2.575193 -7.182503 -34.074166 -1.525202 -4.747151 75.128648 -2.318262 -10.942916 -19.139854 1.990200 0.000000 -7.756700
10.477649 16.491790 1.320363 88.252997 83.697896 101.900683 -8.548158 3.306800 4.181270 -21.272340 -8.032732 -13.729864 -2.962351 0.832332 32.521262 1.251389 1.196358 -21.722385 -1.036300 0.000000 -27.800700 12.283229 -0.540921 0.652349 -2.298992 -6.394674 -35.212171 -1.347253 -4.603363 73.385297 -2.298336 -10.520558 -19.272072 1.945901 0.000000 -7.923800
10.733271 16.589682 1.344467 92.944083 83.917507 106.678412 -8.692821 3.393172 4.221272 -20.505434 -7.894509 -12.053635 -2.892769 0.717290 30.398866 1.040949 0.929127 -19.282353 -0.783700 -0.000000 -32.096400 12.067916 -0.386230 0.906776 -1.979887 -5.647741 -36.109345 -1.148220 -4.432082 71.183487 -2.292113 -10.176800 -19.187613 1.873000 0.000000 -8.524301
